<?xml version="1.0" standalone="no"?>
<!DOCTYPE svg PUBLIC "-//W3C//DTD SVG 20010904//EN"
 "http://www.w3.org/TR/2001/REC-SVG-20010904/DTD/svg10.dtd">
<svg version="1.0" xmlns="http://www.w3.org/2000/svg"
 width="300" height="600" viewBox="0 0 1000.000000 1000.000000"
 preserveAspectRatio="xMidYMid meet">

<g transform="translate(0.000000,1000.000000) scale(0.100000,-0.100000)"
fill="rgba(0, 0, 0, 0.1)" stroke="none">
<path d="M5697 7256 c-4 -10 12 -19 56 -31 414 -113 780 -351 1049 -682 187
-229 335 -539 402 -839 15 -68 25 -96 25 -74 1 49 -41 228 -83 354 -203 608
-704 1079 -1332 1256 -126 35 -111 33 -117 16z"/>
<path d="M5654 7088 c-9 -14 -6 -15 97 -46 507 -154 909 -495 1138 -967 65
-133 108 -256 146 -415 18 -78 23 -91 19 -50 -16 153 -85 374 -171 545 -117
231 -266 416 -468 580 -124 100 -198 146 -350 220 -168 82 -397 156 -411 133z"/>
<path d="M5610 6910 c0 -6 6 -12 13 -14 243 -72 359 -123 519 -229 144 -96
258 -195 355 -311 179 -213 298 -448 358 -708 14 -60 24 -90 24 -70 1 18 -10
78 -23 135 -74 309 -209 552 -430 772 -190 188 -394 314 -644 395 -124 40
-172 49 -172 30z"/>
<path d="M5560 6741 c0 -6 6 -13 13 -15 280 -82 415 -150 606 -304 252 -204
419 -476 511 -833 17 -65 19 -68 14 -24 -8 79 -50 232 -88 327 -133 328 -374
583 -711 751 -130 64 -345 126 -345 98z"/>
<path d="M5520 6566 c0 -9 8 -16 18 -16 23 0 122 -32 210 -68 249 -102 477
-305 618 -548 28 -49 58 -91 68 -92 14 -3 10 10 -20 70 -147 291 -416 526
-719 626 -122 40 -175 49 -175 28z"/>
<path d="M5475 6400 c-3 -6 0 -12 7 -14 240 -68 399 -157 553 -311 49 -49 114
-127 144 -172 29 -46 60 -83 67 -83 20 0 18 8 -23 75 -148 243 -369 415 -628
490 -97 28 -111 30 -120 15z"/>
<path d="M5430 6227 c0 -9 20 -18 53 -26 175 -39 403 -193 512 -345 22 -31 48
-56 58 -56 24 0 22 5 -27 74 -56 78 -164 182 -239 230 -131 84 -357 162 -357
123z"/>
<path d="M6490 5668 c0 -22 38 -170 46 -177 3 -3 4 3 1 14 -3 11 -11 53 -17
92 -7 40 -16 75 -21 79 -5 3 -9 -1 -9 -8z"/>
<path d="M3184 4720 c3 -19 8 -57 11 -83 12 -88 65 -257 114 -361 134 -286
377 -533 660 -676 79 -39 246 -100 276 -100 39 0 3 24 -90 59 -126 48 -208 89
-310 157 -323 213 -559 559 -636 933 -19 92 -36 141 -25 71z"/>
<path d="M2836 4665 c19 -222 115 -500 246 -713 213 -349 573 -635 954 -761
121 -39 164 -47 164 -29 0 8 -26 21 -67 32 -394 112 -775 399 -1013 762 -68
103 -161 296 -199 409 -28 84 -40 131 -76 295 l-14 65 5 -60z"/>
<path d="M3015 4661 c6 -72 53 -267 86 -351 171 -444 544 -803 984 -948 124
-41 145 -45 145 -30 0 7 -43 28 -98 47 -563 195 -964 648 -1098 1241 -22 98
-24 101 -19 41z"/>
<path d="M3720 4696 c0 -15 55 -177 72 -211 98 -196 301 -379 492 -445 55 -19
56 -19 56 1 0 10 -7 19 -14 19 -25 0 -163 76 -236 130 -153 113 -284 295 -335
464 -7 22 -17 42 -23 44 -7 2 -12 1 -12 -2z"/>
<path d="M3550 4666 c0 -74 108 -322 183 -421 47 -62 156 -172 217 -219 110
-86 338 -192 362 -168 8 8 3 14 -18 23 -315 129 -509 302 -644 571 -27 54 -59
130 -70 168 -22 74 -30 86 -30 46z"/>
<path d="M2661 4650 c-1 -44 22 -168 55 -288 174 -642 670 -1154 1309 -1351
133 -41 145 -44 145 -28 0 9 -46 29 -130 57 -512 166 -930 527 -1178 1015 -94
185 -145 339 -190 580 -9 45 -10 46 -11 15z"/>
<path d="M3370 4663 c0 -39 53 -211 90 -295 114 -257 343 -492 600 -615 91
-43 209 -85 221 -77 18 11 8 23 -28 34 -87 28 -224 96 -317 157 -179 119 -337
296 -436 490 -46 88 -110 262 -110 298 0 7 -4 17 -10 20 -5 3 -10 -2 -10 -12z"/>
<path d="M5317 3508 c-15 -10 39 -8 78 2 25 7 22 8 -18 7 -27 -1 -54 -5 -60
-9z"/>
<path d="M5215 3330 c-7 -12 85 -12 160 0 43 6 36 8 -52 9 -59 0 -104 -3 -108
-9z"/>
</g>
</svg>
